<svg height="1000" width="928.6" xmlns="http://www.w3.org/2000/svg"><path fill="rgb(40,109,168)" d="M785.7 553.6v267.8q0 14.5 -10.6 25.1T750 857.1H535.7V642.9H392.9v214.2H178.6q-14.5 0 -25.1 -10.6t-10.6 -25.1V553.6q0 -.6 .2 -1.7t.3 -1.7L464.3 285.7l320.9 264.5q.5 1.1 .5 3.4zm124.5 -38.5l-34.6 41.3q-4.5 5 -11.8 6.1h-1.6q-7.3 0 -11.8 -3.9l-386.1 -322 -386.2 322q-6.7 4.5 -13.4 3.9Q57.5 561.4 53 556.4L18.4 515.1Q14 509.5 14.5 502t6.1 -12L421.9 155.7q17.8 -14.5 42.4 -14.5t42.4 14.5l136.2 113.8V160.7q0 -7.8 5 -12.8t12.8 -5h107.2q7.8 0 12.8 5t5 12.8v227.7L907.9 490q5.6 4.4 6.2 12t-3.9 13.1z"/></svg>