<svg height="1000" width="857.1" xmlns="http://www.w3.org/2000/svg"><path fill="rgb(105,105,105)" d="M500 303.6v250q0 7.8 -5 12.8t-12.9 5H303.6q-7.8 0 -12.9 -5t-5 -12.8v-35.7q0 -7.9 5 -12.9t12.9 -5h125V303.6q0 -7.8 5 -12.9t12.8 -5h35.7q7.9 0 12.9 5t5 12.9zM732.1 500q0 -82.6 -40.7 -152.3T580.9 237.2 428.6 196.4t-152.4 40.8T165.7 347.7 125 500t40.7 152.3 110.5 110.5 152.4 40.8 152.3 -40.8T691.4 652.3 732.1 500zm125 0q0 116.6 -57.4 215.1t-156 156 -215.1 57.5T213.4 871.1 57.5 715.1 0 500 57.5 284.9t155.9 -156T428.6 71.4t215.1 57.5 156 156T857.1 500z"/></svg>