<svg height="1000" width="928.6" xmlns="http://www.w3.org/2000/svg"><path fill="rgb(40,109,168)" d="M357.1 803.6q0 2.2 .6 11.1t.3 14.8 -1.7 13.1 -5.6 10.9 -11.4 3.6H160.7Q94.3 857.1 47.2 810T0 696.4V303.6Q0 237.2 47.2 190t113.5 -47.1h178.6q7.2 0 12.5 5.3t5.3 12.5q0 2.2 .6 11.2t.3 14.8 -1.7 13.1 -5.6 10.9 -11.4 3.6H160.7q-36.8 0 -63 26.2t-26.3 63.1v392.8q0 36.9 26.3 63.1t63 26.2H334.8t6.4 .6 6.5 1.6 4.4 3.1 3.9 5 1.1 7.6zM875 500q0 14.5 -10.6 25.1L560.8 828.7q-10.6 10.6 -25.1 10.6t-25.1 -10.6T500 803.6V642.9H250q-14.5 0 -25.1 -10.6t-10.6 -25.2V392.9q0 -14.6 10.6 -25.2T250 357.1h250V196.4q0 -14.5 10.6 -25.1t25.1 -10.6 25.1 10.6l303.6 303.6Q875 485.5 875 500z"/></svg>