<svg height="1000" width="1071.4" xmlns="http://www.w3.org/2000/svg"><path fill="rgb(105,105,105)" d="M500 500q0 -59.2 -41.9 -101t-101 -41.9 -101 41.9 -41.8 101 41.8 101 101 41.9 101 -41.9T500 500zm428.6 285.7q0 -29 -21.2 -50.2t-50.3 -21.2 -50.2 21.2 -21.2 50.2q0 29.6 20.9 50.5t50.5 20.9 50.5 -20.9 21 -50.5zm0 -571.4q0 -29 -21.2 -50.2t-50.3 -21.2 -50.2 21.2 -21.2 50.2q0 29.6 20.9 50.5t50.5 20.9 50.5 -20.9 21 -50.5zM714.3 449.2v103.3q0 5.5 -3.9 10.8t-8.9 5.9L615 582.6q-6.2 19.5 -17.9 42.4 19 26.8 50.2 64.2 3.9 6.1 3.9 11.1 0 6.7 -3.9 10.6 -12.8 16.8 -46 50t-43.8 33.2q-6.2 0 -11.7 -3.9L481.6 740q-20.7 10.6 -43 17.3 -6.1 60.2 -12.8 86.5 -3.9 13.3 -16.8 13.3H305.2q-6.1 0 -11.1 -4.1t-5.6 -9.8l-12.8 -85.4q-19 -5.6 -41.9 -17.3L168 790.2q-3.9 3.9 -11.2 3.9 -6.1 0 -11.7 -4.5Q64.7 715.4 64.7 700.3q0 -5 3.9 -10.6 5.6 -7.8 22.9 -29.5t26.2 -34.1Q104.9 601.6 98.2 580.4L13.4 567q-5.6 -.6 -9.5 -5.3T0 550.8V447.5Q0 442 3.9 436.7t8.9 -5.9l86.5 -13.4q6.2 -19.5 17.9 -42.4Q98.2 348.2 67 310.8q-3.9 -6.1 -3.9 -11.1 0 -6.7 3.9 -11.2 12.2 -16.7 45.7 -49.7t44.1 -32.9q6.1 0 11.7 3.9l64.2 50.2q19 -10 43 -17.8 6.1 -60.3 12.8 -86 3.9 -13.3 16.7 -13.3H409q6.2 0 11.2 4.1t5.6 9.8l12.8 85.4q19 5.6 41.9 17.3l65.8 -49.7q4.5 -3.9 11.2 -3.9 6.1 0 11.7 4.5 80.4 74.2 80.4 89.3 0 4.4 -4 10.6 -6.6 8.9 -23.4 30.1t-25.1 33.5q12.8 26.8 19 45.7l84.8 12.9q5.6 1.1 9.5 5.8t3.9 10.9zm357.1 297.5v78.1q0 8.9 -83.1 17.3 -6.7 15 -16.8 29 28.5 63.1 28.5 77 0 2.2 -2.2 3.9 -68.1 39.6 -69.2 39.6 -4.5 0 -25.7 -26.2t-29 -37.9q-11.2 1.1 -16.8 1.1t-16.7 -1.1q-7.8 11.7 -29 37.9t-25.7 26.2q-1.1 0 -69.2 -39.6 -2.2 -1.7 -2.2 -3.9 0 -13.9 28.4 -77 -10 -14 -16.7 -29 -83.1 -8.4 -83.1 -17.3v-78.1q0 -9 83.1 -17.3 7.3 -16.2 16.7 -29.1 -28.4 -63 -28.4 -77 0 -2.2 2.2 -3.9 2.3 -1.1 19.5 -11.1t33 -19 16.7 -8.9q4.5 0 25.7 25.9t29 37.7q11.2 -1.1 16.7 -1.1t16.8 1.1q28.4 -39.6 51.3 -62.5l3.4 -1.1q2.2 0 69.2 39 2.2 1.7 2.2 3.9 0 14 -28.5 77 9.5 12.9 16.8 29.1 83.1 8.3 83.1 17.3zm0 -571.5v78.1q0 9 -83.1 17.3 -6.7 15.1 -16.8 29.1 28.5 63 28.5 77 0 2.2 -2.2 3.9 -68.1 39.6 -69.2 39.6 -4.5 0 -25.7 -26.2t-29 -38q-11.2 1.1 -16.8 1.1T840.4 356q-7.8 11.7 -29 38t-25.7 26.2q-1.1 0 -69.2 -39.6 -2.2 -1.7 -2.2 -3.9 0 -14 28.4 -77 -10 -14 -16.7 -29.1 -83.1 -8.3 -83.1 -17.3v-78.1q0 -8.9 83.1 -17.3 7.3 -16.2 16.7 -29 -28.4 -63.1 -28.4 -77 0 -2.2 2.2 -3.9 2.3 -1.1 19.5 -11.2t33 -18.9 16.7 -9q4.5 0 25.7 26t29 37.6q11.2 -1.1 16.7 -1.1t16.8 1.1Q902.3 32.9 925.2 10l3.4 -1.1q2.2 0 69.2 39.1 2.2 1.7 2.2 3.9 0 13.9 -28.5 77 9.5 12.8 16.8 29 83.1 8.4 83.1 17.3z"/></svg>