<svg height="1000" width="857.1" xmlns="http://www.w3.org/2000/svg"><path fill="rgb(105,105,105)" d="M632.8 685.8q4.5 14 -2.2 27.1t-20.7 17.6 -27.3 -2.3T564.7 707q-13.9 -44.6 -51.6 -72.2t-84.5 -27.7T344 634.8 292.4 707q-4.5 14.5 -17.6 21.2t-27 2.3Q233.3 726 226.6 712.9t-2.3 -27.1Q245 618.3 301.3 577t127.3 -41.3T555.8 577t77 108.8zM357.1 357.1q0 29.6 -20.9 50.5t-50.5 21 -50.5 -21 -20.9 -50.5 20.9 -50.5 50.5 -20.9 50.5 20.9 20.9 50.5zm285.8 0q0 29.6 -21 50.5t-50.5 21 -50.5 -21T500 357.1t20.9 -50.5 50.5 -20.9 50.5 20.9 21 50.5zM785.7 500q0 -72.5 -28.4 -138.7T681.1 247.5 567.2 171.3 428.6 142.9t-138.7 28.4 -113.8 76.2T99.9 361.3 71.4 500t28.5 138.7 76.2 113.8 113.8 76.2 138.7 28.4 138.6 -28.4 113.9 -76.2 76.2 -113.8T785.7 500zm71.4 0q0 116.6 -57.4 215.1t-156 156 -215.1 57.5T213.4 871.1 57.5 715.1 0 500 57.5 284.9t155.9 -156T428.6 71.4t215.1 57.5 156 156T857.1 500z"/></svg>