<svg height="1000" width="1000" xmlns="http://www.w3.org/2000/svg"><path fill="rgb(40,109,168)" d="M946.4 214.3q22.4 0 38 15.6t15.6 38v678.5q0 22.3 -15.6 38t-38 15.6H410.7q-22.3 0 -37.9 -15.6t-15.7 -38V785.7H53.6q-22.4 0 -38 -15.6T0 732.1v-375Q0 334.8 11.2 308t26.7 -42.4L265.6 37.9Q281.3 22.3 308 11.2T357.1 0h232.2q22.3 0 37.9 15.6t15.7 38v183q37.9 -22.3 71.4 -22.3h232.1zM642.9 333.1L476 500h166.9V333.1zM285.7 118.9L118.9 285.7h166.8V118.9zm109.4 361L571.4 303.6V71.4H357.1v232.2q0 22.3 -15.6 37.9t-37.9 15.6H71.4v357.2h285.7V571.4q0 -22.3 11.2 -49.1t26.8 -42.4zm533.5 448.7V285.7H714.3v232.2q0 22.3 -15.6 37.9t-38 15.6H428.6v357.2h500z"/></svg>