<svg height="1000" width="1000" xmlns="http://www.w3.org/2000/svg"><path fill="rgb(105,105,105)" d="M1000 696.4V875q0 22.3 -15.6 37.9t-38 15.7H767.9q-22.4 0 -38 -15.7T714.3 875V696.4q0 -22.3 15.6 -37.9t38 -15.6h53.5V535.7H535.7v107.2h53.6q22.3 0 37.9 15.6t15.7 37.9V875q0 22.3 -15.7 37.9t-37.9 15.7H410.7q-22.3 0 -37.9 -15.7T357.1 875V696.4q0 -22.3 15.7 -37.9t37.9 -15.6h53.6V535.7H178.6v107.2h53.5q22.4 0 38 15.6t15.6 37.9V875q0 22.3 -15.6 37.9t-38 15.7H53.6q-22.3 0 -38 -15.7T0 875V696.4q0 -22.3 15.6 -37.9t38 -15.6h53.5V535.7q0 -29 21.2 -50.2t50.3 -21.2h285.7V357.1h-53.6q-22.3 0 -37.9 -15.6t-15.7 -37.9V125q0 -22.3 15.7 -37.9t37.9 -15.7h178.6q22.3 0 37.9 15.7t15.7 37.9v178.6q0 22.3 -15.7 37.9t-37.9 15.6h-53.6v107.2h285.7q29 0 50.3 21.2t21.2 50.2v107.2h53.5q22.4 0 38 15.6t15.6 37.9z"/></svg>