<svg height="1000" width="928.6" xmlns="http://www.w3.org/2000/svg"><path fill="rgb(40,109,168)" d="M928.6 612.7q0 45.2 -24.9 75.4t-68.9 30.1q-22.9 0 -43.2 -9.8t-33 -21.2T727.1 666t-39.6 -9.7q-61.4 0 -61.4 69.1 0 21.8 8.9 64.2t8.4 64.2v2.8q-12.3 0 -18.4 .5 -19 1.7 -54.4 6.5t-64.5 7.5 -54.6 2.8q-34.1 0 -57.5 -14.8t-23.5 -46.6q0 -20.6 9.8 -39.6t21.2 -31.5 21.2 -33 9.8 -43.2q0 -44.1 -30.2 -68.9T327 571.4q-46.9 0 -79.8 25.4T214.3 668q0 24 8.4 46.3t18.7 36 18.6 29.6 8.4 28.1q0 25.1 -25.7 49.7 -20.6 19.5 -65.2 19.5 -53.1 0 -136.8 -13.4 -5 -1.1 -15.3 -2.2T10 859.4l-7.2 -1.1q-.6 0 -1.7 -.6 -1.1 0 -1.1 -.6V285.7q1.1 .6 9.8 2t18.9 2.8 12 1.9q83.7 13.4 136.8 13.4 44.6 0 65.2 -19.5 25.7 -24.6 25.7 -49.7 0 -12.3 -8.4 -28.2t-18.6 -29.5 -18.7 -36 -8.4 -46.4q0 -45.7 32.9 -71.1T327.6 0q44.6 0 74.7 24.8t30.2 68.9q0 22.9 -9.8 43.3t-21.2 32.9 -21.2 31.6 -9.8 39.6q0 31.8 23.5 46.6t57.5 14.8q35.7 0 100.4 -8.4t91 -9.5v1.1q-.6 1.1 -2 9.8t-2.8 19 -1.9 12q-13.4 83.7 -13.4 136.7 0 44.6 19.5 65.3 24.6 25.6 49.7 25.6 12.2 0 28.1 -8.3t29.6 -18.7 36 -18.7T832 500q45.8 0 71.2 32.9t25.4 79.8z"/></svg>