<svg height="1000" width="857.1" xmlns="http://www.w3.org/2000/svg"><path fill="rgb(40,109,168)" d="M857.1 750v71.4q0 14.5 -10.6 25.1t-25.1 10.6H35.7q-14.5 0 -25.1 -10.6T0 821.4V750q0 -14.5 10.6 -25.1t25.1 -10.6h785.7q14.5 0 25.1 10.6t10.6 25.1zm0 -285.7v71.4q0 14.5 -10.6 25.1t-25.1 10.6H35.7q-14.5 0 -25.1 -10.6T0 535.7v-71.4q0 -14.5 10.6 -25.1t25.1 -10.6h785.7q14.5 0 25.1 10.6t10.6 25.1zm0 -285.7V250q0 14.5 -10.6 25.1t-25.1 10.6H35.7q-14.5 0 -25.1 -10.6T0 250v-71.4q0 -14.5 10.6 -25.1t25.1 -10.6h785.7q14.5 0 25.1 10.6t10.6 25.1z"/></svg>