<svg height="1000" width="857.1" xmlns="http://www.w3.org/2000/svg"><path fill="rgb(105,105,105)" d="M819.2 212.1q15.6 15.6 26.8 42.4t11.1 49.1v642.8q0 22.4 -15.6 38t-37.9 15.6h-750q-22.3 0 -38 -15.6T0 946.4V53.6q0 -22.4 15.6 -38T53.6 0h500q22.3 0 49.1 11.2t42.4 26.7zM571.4 75.9v209.8h209.9Q775.7 269.5 769 262.8L594.3 88.2q-6.7 -6.7 -22.9 -12.3zm214.3 852.7V357.1H553.6q-22.3 0 -38 -15.6T500 303.6V71.4H71.4v857.2h714.3zM498.9 597.7q18.4 14.5 46.9 31.2Q578.7 625 611 625q82.1 0 98.8 27.3 9 12.3 1.1 29.1 0 .5 -.5 1.1l-1.1 1.1v.6q-3.4 21.2 -39.7 21.2 -26.7 0 -64.1 -11.2t-72.6 -29.6Q409.6 678 314.2 710.9 228.8 857.1 179.1 857.1q-8.3 0 -15.6 -3.9l-13.4 -6.7q-.5 -.5 -3.3 -2.8 -5.6 -5.5 -3.4 -20 5 -22.4 31.3 -51.1t73.6 -53.9q7.8 -5 12.9 3.4 1.1 1.1 1.1 2.2 29 -47.4 59.7 -109.9 37.9 -75.9 58 -146.2 -13.4 -45.8 -17 -89t3.6 -71.2q6.2 -22.3 23.5 -22.3h12.2q12.9 0 19.6 8.4 10 11.7 5 37.9 -1.1 3.4 -2.2 4.5 .5 1.7 .5 4.5v16.7q-1.1 68.6 -7.8 107.1 30.7 91.6 81.5 132.9zM177.5 827q29 -13.4 76.4 -88.2 -28.5 22.4 -48.8 46.9T177.5 827zM399.6 313.6q-8.4 23.5 -1.2 73.7 .6 -3.9 3.9 -24.6 0 -1.7 4 -24 .5 -2.2 2.2 -4.4 -.6 -.6 -.6 -1.2 -.5 -1.1 -.5 -1.6 -.6 -12.3 -7.3 -20.1 0 .5 -.5 1.1v1.1zm-69.2 368.9q75.3 -30.2 158.4 -45.2 -1.1 -.6 -7.2 -5.3t-8.9 -7.6q-42.5 -37.3 -70.9 -98.2 -15.1 48 -46.3 110 -16.8 31.2 -25.1 46.3zm360.4 -9q-13.3 -13.3 -78.1 -13.3 42.4 15.6 69.2 15.6 7.8 0 10.1 -.6 0 -.5 -1.2 -1.7z"/></svg>