<svg height="1000" width="857.1" xmlns="http://www.w3.org/2000/svg"><path fill="rgb(105,105,105)" d="M571.4 500q0 -59.2 -41.8 -101t-101 -41.9 -101 41.9 -41.9 101 41.9 101 101 41.9 101 -41.9 41.8 -101zm285.7 -60.8v123.9q0 6.7 -4.4 12.8t-11.2 7.2l-103.2 15.7q-10.6 30.1 -21.8 50.8 19.5 27.9 59.7 77 5.6 6.7 5.6 13.9t-5 12.8q-15.1 20.7 -55.3 60.3t-52.4 39.6q-6.7 0 -14.5 -5l-77 -60.3q-24.6 12.9 -50.8 21.3 -8.9 75.8 -16.2 103.7 -3.9 15.7 -20.1 15.7H366.6q-7.8 0 -13.6 -4.8t-6.5 -12L330.9 809.2q-27.3 -9 -50.2 -20.7L202 848.2q-5.6 5 -13.9 5 -7.9 0 -14 -6.1Q103.8 783.5 82 753.3q-3.9 -5.5 -3.9 -12.8 0 -6.7 4.5 -12.8Q91 716 111 690.6t30.2 -39.4Q126.1 623.3 118.3 596L16.2 580.9q-7.3 -1.1 -11.7 -7T0 560.8V436.9q0 -6.7 4.5 -12.8t10.6 -7.2l103.8 -15.7q7.8 -25.6 21.7 -51.3 -22.3 -31.8 -59.7 -77 -5.6 -6.7 -5.6 -13.4 0 -5.6 5.1 -12.8 14.5 -20.1 54.9 -60t52.8 -39.9q7.2 0 14.5 5.5l77 59.8q24.5 -12.9 50.8 -21.3Q339.3 115 346.5 87.1q3.9 -15.7 20.1 -15.7h123.9q7.8 0 13.7 4.8t6.4 12l15.6 102.6q27.4 9 50.3 20.7l79.2 -59.7q5 -5 13.4 -5 7.2 0 13.9 5.5 72 66.4 92.1 94.9 3.9 4.5 3.9 12.3 0 6.7 -4.4 12.8 -8.4 11.7 -28.5 37.1T716 348.8q14.5 27.9 22.8 54.7L841 419.1q7.2 1.1 11.7 7t4.4 13.1z"/></svg>