<svg height="1000" width="1000" xmlns="http://www.w3.org/2000/svg"><path fill="rgb(40,109,168)" d="M508.9 946.4q0 -8.9 -8.9 -8.9 -32.9 0 -56.6 -23.7t-23.8 -56.7q0 -8.9 -8.9 -8.9t-8.9 8.9q0 40.8 28.7 69.5t69.5 28.8q8.9 0 8.9 -9zM137.3 785.7h725.4Q714.3 618.3 714.3 321.4q0 -28.4 -13.4 -58.6t-38.5 -57.4 -67.8 -45T500 142.9t-94.6 17.5 -67.8 45 -38.5 57.4 -13.4 58.6q0 296.9 -148.4 464.3zm827 0q0 29 -21.2 50.2t-50.2 21.2h-250q0 59.2 -41.9 101T500 1000 399 958.1t-41.9 -101h-250q-29 0 -50.2 -21.2T35.7 785.7q27.9 -23.4 50.8 -49.1t47.4 -66.7 41.6 -88.4 27.9 -115 10.9 -145.1q0 -84.8 65.3 -157.6T450.9 75.3q-4.5 -10.6 -4.5 -21.7 0 -22.4 15.7 -38T500 0t37.9 15.6 15.7 38q0 11.1 -4.5 21.7 106 15.7 171.3 88.5t65.3 157.6q0 77.6 10.9 145.1t27.9 115 41.6 88.4 47.4 66.7 50.8 49.1z"/></svg>