<svg height="1000" width="857.1" xmlns="http://www.w3.org/2000/svg"><path fill="rgb(40,109,168)" d="M642.9 607.1q0 14.6 -10.6 25.2t-25.2 10.6H250q-14.5 0 -25.1 -10.6t-10.6 -25.2T224.9 582 250 571.4h357.1q14.6 0 25.2 10.6t10.6 25.1zm-285.8 -250q0 29.6 -20.9 50.5t-50.5 21 -50.5 -21 -20.9 -50.5 20.9 -50.5 50.5 -20.9 50.5 20.9 20.9 50.5zm285.8 0q0 29.6 -21 50.5t-50.5 21 -50.5 -21T500 357.1t20.9 -50.5 50.5 -20.9 50.5 20.9 21 50.5zM785.7 500q0 -72.5 -28.4 -138.7T681.1 247.5 567.2 171.3 428.6 142.9t-138.7 28.4 -113.8 76.2T99.9 361.3 71.4 500t28.5 138.7 76.2 113.8 113.8 76.2 138.7 28.4 138.6 -28.4 113.9 -76.2 76.2 -113.8T785.7 500zm71.4 0q0 116.6 -57.4 215.1t-156 156 -215.1 57.5T213.4 871.1 57.5 715.1 0 500 57.5 284.9t155.9 -156T428.6 71.4t215.1 57.5 156 156T857.1 500z"/></svg>