<svg height="1000" width="857.1" xmlns="http://www.w3.org/2000/svg"><path fill="rgb(40,109,168)" d="M660.7 500q0 14.5 -10.6 25.1L346.5 828.7q-10.6 10.6 -25.1 10.6t-25.1 -10.6 -10.6 -25.1V642.9h-250q-14.5 0 -25.1 -10.6T0 607.1V392.9q0 -14.6 10.6 -25.2t25.1 -10.6h250V196.4q0 -14.5 10.6 -25.1t25.1 -10.6 25.1 10.6l303.6 303.6q10.6 10.6 10.6 25.1zM857.1 303.6v392.8q0 66.4 -47.1 113.6t-113.6 47.1H517.9q-7.3 0 -12.6 -5.3T500 839.3q0 -2.2 -.6 -11.2t-.2 -14.8 1.6 -13.1 5.6 -10.9 11.5 -3.6h178.5q36.9 0 63.1 -26.2t26.2 -63.1V303.6q0 -36.9 -26.2 -63.1t-63.1 -26.2H522.3t-6.4 -.6 -6.4 -1.6T505 209t-3.9 -5 -1.1 -7.6q0 -2.2 -.6 -11.1t-.2 -14.8 1.6 -13.1 5.6 -10.9 11.5 -3.6h178.5q66.4 0 113.6 47.1t47.1 113.6z"/></svg>