<svg height="1000" width="1000" xmlns="http://www.w3.org/2000/svg"><path fill="rgb(105,105,105)" d="M928.6 839.3V410.7q-17.9 20.1 -38.5 36.8 -149.6 115 -237.8 188.7 -28.4 24 -46.3 37.3t-48.2 27.1 -57.2 13.7h-1.2q-26.7 0 -57.2 -13.7T394 673.5t-46.3 -37.3Q259.5 562.5 109.9 447.5 89.3 430.8 71.4 410.7v428.6q0 7.2 5.3 12.5t12.6 5.3h821.4q7.3 0 12.6 -5.3t5.3 -12.5zm0 -586.5v-13.7t-.3 -7.2 -1.7 -7 -3.1 -5 -5 -4.2 -7.8 -1.4H89.3q-7.3 0 -12.6 5.3t-5.3 12.5q0 93.8 82.1 158.5 107.7 84.8 223.7 176.9 3.4 2.8 19.6 16.5t25.6 20.9 24.9 17.6 28.1 15.3 24 5.1h1.2q11.1 0 24 -5.1t28.1 -15.3 24.9 -17.6T603.2 584t19.6 -16.5q116 -92.1 223.7 -176.9 30.2 -24 56.1 -64.4t26 -73.4zm71.4 -20.7v607.2q0 36.8 -26.2 63t-63.1 26.3H89.3q-36.8 0 -63.1 -26.3T0 839.3V232.1q0 -36.8 26.2 -63t63.1 -26.2h821.4q36.8 0 63.1 26.2t26.2 63z"/></svg>