<svg height="1000" width="857.1" xmlns="http://www.w3.org/2000/svg"><path fill="rgb(105,105,105)" d="M632.8 599.9q-20.6 67.5 -77 108.8T428.6 750 301.3 708.7t-77 -108.8q-4.4 -14 2.3 -27.1t21.2 -17.6q13.9 -4.4 27 2.3t17.6 21.2q14 44.6 51.6 72.2t84.6 27.7 84.5 -27.7 51.6 -72.2q4.5 -14.5 17.9 -21.2t27.3 -2.3 20.7 17.6 2.2 27.1zM357.1 357.1q0 29.6 -20.9 50.5t-50.5 21 -50.5 -21 -20.9 -50.5 20.9 -50.5 50.5 -20.9 50.5 20.9 20.9 50.5zm285.8 0q0 29.6 -21 50.5t-50.5 21 -50.5 -21T500 357.1t20.9 -50.5 50.5 -20.9 50.5 20.9 21 50.5zM785.7 500q0 -72.5 -28.4 -138.7T681.1 247.5 567.2 171.3 428.6 142.9t-138.7 28.4 -113.8 76.2T99.9 361.3 71.4 500t28.5 138.7 76.2 113.8 113.8 76.2 138.7 28.4 138.6 -28.4 113.9 -76.2 76.2 -113.8T785.7 500zm71.4 0q0 116.6 -57.4 215.1t-156 156 -215.1 57.5T213.4 871.1 57.5 715.1 0 500 57.5 284.9t155.9 -156T428.6 71.4t215.1 57.5 156 156T857.1 500z"/></svg>