<svg height="1000" width="1071.4" xmlns="http://www.w3.org/2000/svg"><path fill="rgb(105,105,105)" d="M344.3 780.7l-27.9 27.9q-5.6 5.6 -12.8 5.6t-12.9 -5.6L30.7 548.5Q25.1 543 25.1 535.7t5.6 -12.8l260 -260.1q5.6 -5.5 12.9 -5.5t12.8 5.5l27.9 27.9q5.6 5.6 5.6 12.9t-5.6 12.8L125 535.7 344.3 755q5.6 5.6 5.6 12.9t-5.6 12.8zM674.1 185.3L466 905.7q-2.3 7.2 -8.7 10.9t-13.1 1.4l-34.6 -9.5q-7.3 -2.2 -10.9 -8.7t-1.4 -13.6L605.5 165.7q2.2 -7.2 8.6 -10.8t13.1 -1.4l34.6 9.4q7.3 2.3 10.9 8.7t1.4 13.7zm366.6 363.2l-260 260.1q-5.6 5.6 -12.8 5.6T755 808.6l-27.9 -27.9q-5.6 -5.6 -5.6 -12.8t5.6 -12.9L946.4 535.7 727.1 316.4q-5.6 -5.6 -5.6 -12.8t5.6 -12.9L755 262.8q5.6 -5.5 12.9 -5.5t12.8 5.5l260 260.1q5.6 5.6 5.6 12.8t-5.6 12.8z"/></svg>