<svg height="1000" width="857.1" xmlns="http://www.w3.org/2000/svg"><path fill="rgb(40,109,168)" d="M819.2 212.1q15.6 15.6 26.8 42.4t11.1 49.1v642.8q0 22.4 -15.6 38t-37.9 15.6h-750q-22.3 0 -38 -15.6T0 946.4V53.6q0 -22.4 15.6 -38T53.6 0h500q22.3 0 49.1 11.2t42.4 26.7zM571.4 75.9v209.8h209.9Q775.7 269.5 769 262.8L594.3 88.2q-6.7 -6.7 -22.9 -12.3zm214.3 852.7V357.1H553.6q-22.3 0 -38 -15.6T500 303.6V71.4H71.4v857.2h714.3zM214.3 446.4q0 -7.8 5 -12.8t12.8 -5H625q7.8 0 12.8 5t5.1 12.8v35.7q0 7.9 -5.1 12.9t-12.8 5H232.1q-7.8 0 -12.8 -5t-5 -12.9v-35.7zm410.7 125q7.8 0 12.8 5.1t5.1 12.8V625q0 7.8 -5.1 12.8t-12.8 5.1H232.1q-7.8 0 -12.8 -5.1t-5 -12.8v-35.7q0 -7.8 5 -12.8t12.8 -5.1H625zm0 142.9q7.8 0 12.8 5t5.1 12.8v35.8q0 7.8 -5.1 12.8t-12.8 5H232.1q-7.8 0 -12.8 -5t-5 -12.8v-35.8q0 -7.8 5 -12.8t12.8 -5H625z"/></svg>