<svg height="1000" width="1000" xmlns="http://www.w3.org/2000/svg"><path fill="rgb(105,105,105)" d="M0 890.632q0 -3.906 .977 -7.812t.977 -7.812 .977 -7.812 .977 -5.859l0 -1.953l74.214 -267.561q9.765 -31.248 31.248 -52.731l324.198 -324.198l0 -1.953l1.953 -1.953 150.381 -152.334q60.543 -58.59 146.475 -58.59 105.462 0 185.535 80.073 74.214 74.214 81.05 170.888t-57.614 161.123l-476.532 480.438q-23.436 23.436 -54.684 31.248l-263.655 70.308 -2.929 .977q-2.929 .977 -6.836 1.953t-8.789 .977 -9.765 .977 -8.789 .977q-44.919 0 -77.144 -32.224t-32.224 -77.144zm62.496 0q0 19.53 13.671 33.201t33.201 13.671q5.859 0 21.483 -3.906l115.227 -31.248q3.906 -58.59 -42.966 -105.462 -44.919 -44.919 -105.462 -42.966l-31.248 119.133q-3.906 13.671 -3.906 17.577zm44.919 -167.958q66.402 1.953 117.18 52.731t52.731 119.133l115.227 -29.295 11.718 -5.859q41.013 -46.872 33.201 -115.227t-60.543 -121.086q-50.778 -48.825 -115.227 -58.59t-111.321 23.436q-7.812 9.765 -11.718 21.483zm130.851 -224.595q44.919 1.953 89.838 19.53l294.903 -294.903q-87.885 -21.483 -144.522 33.201zm119.133 35.154q37.107 19.53 64.449 44.919 21.483 21.483 41.013 54.684l296.856 -298.809q-15.624 -31.248 -39.06 -54.684 -29.295 -29.295 -66.402 -44.919zm121.086 128.898q17.577 41.013 21.483 82.026l0 23.436l242.172 -244.125l0 -1.953q60.543 -60.543 31.248 -156.24zm101.556 -507.78q105.462 0 185.535 80.073 70.308 72.261 78.12 166.005l0 21.483l52.731 -54.684q44.919 -44.919 41.013 -111.321 -5.859 -74.214 -62.496 -130.851 -62.496 -62.496 -142.569 -62.496 -60.543 0 -101.556 41.013z"/></svg>