<svg height="1000" width="1000" xmlns="http://www.w3.org/2000/svg"><path fill="rgb(105,105,105)" d="M0 671.896q0 -54.684 27.342 -101.556t74.214 -74.214q-7.812 -21.483 -7.812 -42.966 0 -58.59 41.013 -99.603t99.603 -41.013q19.53 0 42.966 7.812 33.201 -74.214 101.556 -119.133t152.334 -44.919q109.368 0 188.465 73.237t90.815 180.653q82.026 15.624 135.733 80.073t53.708 150.381q0 97.65 -68.355 166.005t-166.005 68.355l-562.464 0q-83.979 0 -143.546 -59.567t-59.567 -143.546zm62.496 0q0 58.59 41.013 99.603t99.603 41.013l562.464 0q70.308 0 121.086 -50.778t50.778 -121.086q0 -62.496 -39.06 -109.368t-99.603 -58.59q-35.154 -7.812 -41.989 -14.648t-8.789 -41.989q-7.812 -83.979 -70.308 -140.616t-146.475 -56.637q-62.496 0 -117.18 34.178t-80.073 92.767q-9.765 19.53 -11.718 24.413t-8.789 12.694 -14.648 5.859 -21.483 -5.859q-21.483 -9.765 -42.966 -7.812 -33.201 0 -55.66 22.46t-22.46 55.66q0 9.765 3.906 23.436 13.671 33.201 9.765 44.919t-37.107 29.295q-70.308 41.013 -70.308 121.086z"/></svg>