<svg height="1000" width="830" xmlns="http://www.w3.org/2000/svg"><path fill="rgb(40,109,168)" d="M795 119.069c50 46.25 43.75 117.5 -3.75 165l-46.25 46.25s35 -53.75 -37.5 -123.75c-63.75 -63.75 -123.75 -36.25 -123.75 -36.25l48.75 -48.75c43.75 -45 120 -45 162.5 -2.5zm-88.75 250l-492.5 492.5 -210 51.25 -3.75 -3.75 55 -210 492.5 -490c8.75 -2.5 30 -8.75 60 -2.5l-522.5 522.5 -15 55 60 60 56.25 -15 25 -23.75 2.5 -56.25 -40 -40 478.75 -478.75c7.5 6.25 7.5 6.25 15 15 71.25 70 38.75 123.75 38.75 123.75z"/></svg>