<svg height="1000" width="834" xmlns="http://www.w3.org/2000/svg"><path fill="rgb(105,105,105)" d="M416.25 1003.25l-370 -371.25q-46.25 -46.25 -46.25 -110t46.25 -110q42.5 -42.5 105.625 -44.375t108.125 38.125l0 -252.5q0 -65 45.625 -110.625t110.625 -45.625 110.625 45.625 45.625 110.625l0 252.5q45 -40 108.75 -38.125t106.25 44.375q46.25 46.25 46.25 110t-46.25 110zm-260 -533.75q-22.5 0 -37.5 15t-15 36.875 15 36.875l297.5 297.5 297.5 -297.5q15 -15 15 -36.875t-15 -36.875 -36.875 -15 -36.875 15l-171.25 172.5l0 -503.75q0 -21.25 -15.625 -36.25t-36.875 -15 -36.25 15 -15 36.25l0 503.75l-172.5 -172.5q-15 -15 -36.25 -15z"/></svg>