<svg height="1000" width="678" xmlns="http://www.w3.org/2000/svg"><path fill="rgb(105,105,105)" d="M586.25 448.25q-37.5 0 -64.375 33.75t-26.875 82.5 26.875 83.125 64.375 34.375q21.25 0 42.5 -12.5 26.25 -17.5 37.5 -11.875t11.25 24.375l0 143.75q0 31.25 -23.125 54.375t-55.625 23.125l-142.5 0q-16.25 0 -23.75 -9.375t2.5 -30.625q21.25 -25 21.25 -51.25 0 -37.5 -34.375 -63.75t-83.125 -26.25 -83.125 26.25 -34.375 63.75q0 22.5 12.5 43.75 17.5 26.25 11.875 36.875t-24.375 10.625l-143.75 0q-32.5 0 -55 -23.125t-22.5 -54.375l0 -143.75q0 -16.25 9.375 -23.125t30.625 3.125q23.75 20 51.25 20 37.5 0 64.375 -34.375t26.875 -83.125 -26.875 -82.5 -64.375 -33.75q-21.25 0 -42.5 12.5 -26.25 17.5 -37.5 11.875t-11.25 -24.375l0 -91.25q0 -32.5 23.125 -55.625t54.375 -23.125l143.75 0q18.75 0 24.375 -10.625t-10.625 -36.875q-13.75 -20 -13.75 -43.75 0 -37.5 34.375 -63.75t83.125 -26.25 83.125 26.25 34.375 63.75q0 26.25 -21.25 51.25 -10 21.25 -2.5 30.625t23.75 9.375l142.5 0q31.25 0 55 23.125t23.75 55.625l0 91.25q0 16.25 -9.375 23.125t-30.625 -3.125q-23.75 -20 -51.25 -20z"/></svg>