<svg height="1000" width="834" xmlns="http://www.w3.org/2000/svg"><path fill="rgb(105,105,105)" d="M416.25 1001q-65 0 -110.625 -45.625t-45.625 -110.625l0 -247.5q-45 40 -108.125 38.125t-105.625 -44.375q-46.25 -46.25 -46.25 -110.625t46.25 -110.625l370 -371.25 371.25 371.25q46.25 46.25 46.25 110.625t-46.25 110.625q-42.5 42.5 -106.25 44.375t-108.75 -38.125l0 247.5q0 65 -45.625 110.625t-110.625 45.625zm-51.25 -655l0 498.75q0 21.25 15 36.875t36.25 15.625 36.875 -15.625 15.625 -36.875l0 -498.75l171.25 171.25q15 15 36.875 15t36.875 -15 15 -36.875 -15 -36.875l-297.5 -297.5 -297.5 297.5q-15 15 -15 36.875t15 36.875 36.875 15 36.875 -15z"/></svg>