<svg height="1000" width="1006" xmlns="http://www.w3.org/2000/svg"><path fill="rgb(40,109,168)" d="M637.5 759.5q0 63.75 -46.25 110t-110 46.25 -110 -46.25l-371.25 -370 371.25 -371.25q43.75 -43.75 110 -43.75t110 43.75q46.25 46.25 46.25 110 0 61.25 -40 105l252.5 0q65 0 110.625 45.625t45.625 110.625 -45.625 110.625 -110.625 45.625l-252.5 0q40 43.75 40 103.75zm-490 -260l297.5 296.25q15 15 36.875 15t36.875 -15 15 -36.25 -15 -36.25l-172.5 -172.5l503.75 0q21.25 0 36.25 -15t15 -36.25 -15 -36.875 -36.25 -15.625l-503.75 0l172.5 -171.25q15 -15 15 -37.5 0 -21.25 -15 -36.25t-36.875 -15 -36.875 15z"/></svg>