<svg height="1000" width="1041" xmlns="http://www.w3.org/2000/svg"><path fill="rgb(40,109,168)" d="M781.25 865l-572.5 0q-86.25 0 -147.5 -61.25t-61.25 -147.5q0 -72.5 43.75 -128.125t112.5 -73.125l0 -7.5q0 -130 91.875 -221.25t220.625 -91.25q100 0 180.625 58.125t113.125 151.875q115 -8.75 196.875 68.125t81.875 190.625q0 107.5 -76.25 184.375t-183.75 76.875zm-577.5 -313.75q-40 0 -70 31.25t-30 73.75 30.625 73.125 74.375 30.625l572.5 0q65 0 110.625 -45.625t45.625 -110.625 -45.625 -110.625 -110.625 -45.625q-18.75 0 -42.5 7.5l-56.25 16.25 -8.75 -57.5q-13.75 -75 -71.25 -124.375t-133.75 -49.375q-86.25 0 -147.5 60.625t-61.25 146.875q0 15 5 42.5l12.5 62.5z"/></svg>