<svg height="1000" width="1006" xmlns="http://www.w3.org/2000/svg"><path fill="rgb(40,109,168)" d="M525 915.75q-63.75 0 -110 -46.25t-46.25 -110q0 -11.25 1.25 -20t5 -18.75 6.875 -16.25 11.25 -21.875 14.375 -26.875l-251.25 0q-65 0 -110.625 -45.625t-45.625 -110.625 45.625 -110.625 110.625 -45.625l251.25 0q-5 -11.25 -13.75 -26.875t-11.875 -21.875 -6.875 -16.875 -5 -19.375 -1.25 -20q0 -65 45 -110 43.75 -43.75 110.625 -43.75t110.625 43.75l371.25 371.25 -371.25 370q-46.25 46.25 -110 46.25zm-368.75 -468.75q-21.25 0 -36.875 15.625t-15.625 36.875 15.625 36.25 36.875 15l502.5 0l-171.25 172.5q-15 15 -15 36.25t15 36.25 36.875 15 36.875 -15l297.5 -296.25 -297.5 -297.5q-15 -15 -36.875 -15t-36.875 15 -15 36.25q0 22.5 15 37.5l171.25 171.25l-502.5 0z"/></svg>