<svg height="1000" width="1146" xmlns="http://www.w3.org/2000/svg"><path fill="rgb(105,105,105)" d="M1107.5 428q38.75 30 38.75 80 0 42.5 -30.625 73.125t-74.375 30.625l-51.25 0l0 312.5q0 43.75 -31.25 74.375t-73.75 30.625l-625 0q-42.5 0 -73.125 -30.625t-30.625 -74.375l0 -312.5l-52.5 0q-43.75 0 -73.75 -30.625t-30 -73.125q0 -46.25 36.25 -78.75 78.75 -66.25 203.75 -173.75t211.25 -181.25 87.5 -75l33.75 -28.75 35 28.75q1.25 1.25 86.875 75t210.625 181.25 202.5 172.5zm-430 496.25l0 -260l-208.75 0l0 260l208.75 0zm207.5 -416.25l156.25 0q-231.25 -193.75 -468.75 -400 -237.5 206.25 -468.75 400l156.25 0l0 416.25l156.25 0l0 -312.5l312.5 0l0 312.5l156.25 0l0 -416.25z"/></svg>